{
  "accessors": [
    {
      "bufferView": 2,
      "componentType": 5126,
      "count": 10748,
      "max": [
        56.58799362182617,
        56.58799362182617,
        88.47085571289063
      ],
      "min": [
        -56.58799362182617,
        -56.58799362182617,
        -88.47085571289063
      ],
      "type": "VEC3"
    },
    {
      "bufferView": 2,
      "byteOffset": 128976,
      "componentType": 5126,
      "count": 10748,
      "max": [
        0.9999744892120361,
        0.9999744892120361,
        1.0
      ],
      "min": [
        -0.9999745488166809,
        -0.9999744892120361,
        -1.0
      ],
      "type": "VEC3"
    },
    {
      "bufferView": 1,
      "componentType": 5126,
      "count": 10748,
      "max": [
        1.2775195837020874,
        2.9384806156158447
      ],
      "min": [
        -0.28751951456069946,
        -1.9384806156158447
      ],
      "type": "VEC2"
    },
    {
      "bufferView": 0,
      "componentType": 5125,
      "count": 64512,
      "type": "SCALAR"
    }
  ],
  "asset": {
    "extras": {
      "author": "riach (https://sketchfab.com/riach)",
      "license": "CC-BY-4.0 (http://creativecommons.org/licenses/by/4.0/)",
      "source": "https://sketchfab.com/3d-models/abstract-rainbow-translucent-pendant-fd730e2886e748a0bd645d05fd96040d",
      "title": "Abstract Rainbow Translucent Pendant"
    },
    "generator": "Sketchfab-15.1.0",
    "version": "2.0"
  },
  "bufferViews": [
    {
      "buffer": 0,
      "byteLength": 258048,
      "name": "floatBufferViews",
      "target": 34963
    },
    {
      "buffer": 0,
      "byteLength": 85984,
      "byteOffset": 258048,
      "byteStride": 8,
      "name": "floatBufferViews",
      "target": 34962
    },
    {
      "buffer": 0,
      "byteLength": 257952,
      "byteOffset": 344032,
      "byteStride": 12,
      "name": "floatBufferViews",
      "target": 34962
    }
  ],
  "buffers": [
    {
      "byteLength": 601984,
      "uri": "scene.bin"
    }
  ],
  "extensionsUsed": [
    "KHR_materials_clearcoat",
    "KHR_materials_specular"
  ],
  "images": [
    {
      "uri": "textures/Material_0_baseColor.png"
    }
  ],
  "materials": [
    {
      "alphaMode": "BLEND",
      "doubleSided": true,
      "extensions": {
        "KHR_materials_clearcoat": {
          "clearcoatFactor": 1.0,
          "clearcoatRoughnessFactor": 0.0
        },
        "KHR_materials_specular": {
          "specularColorFactor": [
            1.0,
            1.0,
            1.0
          ],
          "specularFactor": 1.0
        }
      },
      "name": "Material_0",
      "pbrMetallicRoughness": {
        "baseColorFactor": [
          1.0,
          1.0,
          1.0,
          0.5165730028891516
        ],
        "baseColorTexture": {
          "index": 0
        },
        "roughnessFactor": 0.4163791737270057
      }
    }
  ],
  "meshes": [
    {
      "name": "Hedra001_Material #0_0",
      "primitives": [
        {
          "attributes": {
            "NORMAL": 1,
            "POSITION": 0,
            "TEXCOORD_0": 2
          },
          "indices": 3,
          "material": 0,
          "mode": 4
        }
      ]
    }
  ],
  "nodes": [
    {
      "children": [
        1
      ],
      "matrix": [
        1.0,
        0.0,
        0.0,
        0.0,
        0.0,
        2.220446049250313e-16,
        -1.0,
        0.0,
        0.0,
        1.0,
        2.220446049250313e-16,
        0.0,
        0.0,
        0.0,
        0.0,
        1.0
      ],
      "name": "Sketchfab_model"
    },
    {
      "children": [
        2
      ],
      "matrix": [
        0.02539999969303608,
        0.0,
        0.0,
        0.0,
        0.0,
        0.0,
        0.02539999969303608,
        0.0,
        0.0,
        -0.02539999969303608,
        0.0,
        0.0,
        0.0,
        0.0,
        0.0,
        1.0
      ],
      "name": "b1ea9afe3eba4465b9a116a22f86e3db.fbx"
    },
    {
      "children": [
        3
      ],
      "name": "RootNode"
    },
    {
      "children": [
        4
      ],
      "matrix": [
        0.6405529975891113,
        0.0,
        0.0,
        0.0,
        0.0,
        1.4223133728321876e-16,
        -0.6405529975891113,
        0.0,
        0.0,
        0.6405529975891113,
        1.4223133728321876e-16,
        0.0,
        -0.6180763244628906,
        0.0,
        3.4776039123535156,
        1.0
      ],
      "name": "Hedra001"
    },
    {
      "mesh": 0,
      "name": "Hedra001_Material #0_0"
    }
  ],
  "samplers": [
    {
      "magFilter": 9728,
      "minFilter": 9728,
      "wrapS": 33648,
      "wrapT": 33648
    }
  ],
  "scene": 0,
  "scenes": [
    {
      "name": "Sketchfab_Scene",
      "nodes": [
        0
      ]
    }
  ],
  "textures": [
    {
      "sampler": 0,
      "source": 0
    }
  ]
}
